# xmcd CD database file
#
# Track frame offsets:
#	150
#	18872
#	34985
#	46880
#	63527
#	92877
#	115057
#	136345
#	166952
#	186295
#	208312
#	228895
#
# Disc length: 3373 seconds
#
# Revision: 0
# Processed by: cddbd v1.5.1PL2 Copyright (c) Steve Scherf et al.
# Submitted via: CDex 1.51
#
DISCID=a30d2b0c
DTITLE=Various Artist - New Age - Compilation
DYEAR=2001
DGENRE=New Age
TTITLE0=Jesse Cook - Virtue
TTITLE1=Ottmar Liebert - Morning sky
TTITLE2=John Whelan - Trip to skye
TTITLE3=Kate Price - Temple of wind
TTITLE4=Axiom of choice - Greener than God's dream
TTITLE5=Douglas Spotted Eagle - Breathe
TTITLE6=Yulara - Shakti dance
TTITLE7=Ekstasis - Providence
TTITLE8=Grant Geissman - In with the out crowd
TTITLE9=Shahin and Sepehr - Body and Soul
TTITLE10=Jonathan Cain - Body language
TTITLE11=Alex Bugnon - A simple song
EXTD=YEAR: 2001
EXTT0=
EXTT1=
EXTT2=
EXTT3=
EXTT4=
EXTT5=
EXTT6=
EXTT7=
EXTT8=
EXTT9=
EXTT10=
EXTT11=
PLAYORDER=
